<svg width="92" height="94" viewBox="0 0 92 94" fill="none" xmlns="http://www.w3.org/2000/svg">
<g filter="url(#filter0_d_191_1625)">
<g filter="url(#filter1_d_191_1625)">
<path d="M42.68 84.9098C64.5947 84.9098 82.36 67.1445 82.36 45.2298C82.36 23.3151 64.5947 5.5498 42.68 5.5498C20.7653 5.5498 3 23.3151 3 45.2298C3 67.1445 20.7653 84.9098 42.68 84.9098Z" fill="#FFCE81"/>
</g>
<path d="M43.701 60.5783C43.701 60.5783 43.3543 60.5745 42.661 60.567C42.0211 60.5601 41.2756 60.4453 40.4246 60.2228C39.5737 60.0002 38.8053 59.5386 38.1195 58.8378C37.487 58.1375 37.1783 57.0941 37.1933 55.7075C37.2135 53.841 37.6279 52.5121 38.4365 51.7208C39.2985 50.93 40.1839 50.4329 41.0928 50.2294C42.0551 50.0265 42.6965 49.9001 43.017 49.8502C43.2843 49.7998 43.6579 49.7772 44.1378 49.7823C44.6178 49.7875 45.1001 49.5794 45.5847 49.158C46.0698 48.6832 46.453 47.7806 46.734 46.4502C47.0684 45.1205 47.197 43.0951 47.1198 40.3741C47.089 38.2936 46.8657 36.7444 46.4501 35.7265C46.0883 34.6559 45.6694 33.9313 45.1935 33.5528C44.7176 33.1743 44.293 32.983 43.9196 32.979C43.6002 32.9222 43.4405 32.8938 43.4405 32.8938C43.4411 32.8405 43.1736 32.9176 42.638 33.1251C42.103 33.2794 41.565 33.7002 41.0242 34.3878C40.5368 35.0759 40.3374 36.2471 40.4262 37.9015C40.5196 39.1292 40.6669 40.3042 40.8681 41.4265C41.0698 42.4954 41.1394 43.4562 41.0769 44.3089C41.0149 45.1083 40.608 45.7439 39.8562 46.2158C39.1583 46.6349 37.8763 46.8078 36.0103 46.7342C34.1977 46.6613 32.7879 46.326 31.781 45.7284C30.7746 45.0775 30.063 44.2964 29.6462 43.3852C29.2833 42.4212 29.0806 41.4323 29.0383 40.4184C28.9959 39.4046 29.006 38.4713 29.0686 37.6186C29.1311 36.7659 29.3024 35.7277 29.5823 34.504C29.9161 33.2275 30.543 31.9809 31.4629 30.7641C32.4367 29.4945 33.8881 28.4435 35.8173 27.611C37.747 26.7252 40.3392 26.2199 43.5941 26.0951C46.849 25.9703 49.4593 26.2652 51.425 26.9799C53.3913 27.6412 54.8739 28.6439 55.8727 29.9882C56.8716 31.3324 57.5478 32.9131 57.9015 34.7304C58.3091 36.4949 58.555 38.4177 58.6391 40.4987C58.7691 43.2736 58.4223 45.75 57.5987 47.9279C56.829 50.053 55.7964 51.8286 54.5009 53.2547C53.2059 54.6274 51.862 55.5996 50.4691 56.1712C50.4691 56.1712 50.4131 56.4106 50.3013 56.8895C50.2428 57.3689 50.0234 57.9265 49.6431 58.5624C49.2635 59.145 48.5914 59.6445 47.6268 60.0607C46.7156 60.4775 45.407 60.6501 43.701 60.5783ZM42.9516 63.2903C42.9516 63.2903 43.2716 63.2938 43.9115 63.3007C44.6048 63.3082 45.4036 63.4235 46.3079 63.6466C47.2661 63.817 48.1421 64.1999 48.9357 64.7951C49.7293 65.3904 50.2528 66.3028 50.5061 67.5323C50.7601 68.7084 50.59 69.64 49.9959 70.3269C49.4556 70.9611 48.7574 71.4069 47.9013 71.6644C47.0451 71.9218 46.2701 72.0734 45.5762 72.1192C44.8823 72.165 44.5354 72.188 44.5354 72.188C44.5354 72.188 44.1888 72.1842 43.4955 72.1767C42.8027 72.1159 41.9773 72.0003 41.0191 71.8299C40.1148 71.6068 39.2919 71.2512 38.5505 70.7631C37.8096 70.2217 37.3913 69.4438 37.2957 68.4294C37.1043 66.4005 37.5456 65.0452 38.6197 64.3635C39.7472 63.6823 41.1911 63.3246 42.9516 63.2903Z" fill="#35273A"/>
</g>
<defs>
<filter id="filter0_d_191_1625" x="0" y="2.5498" width="91.36" height="91.3599" filterUnits="userSpaceOnUse" color-interpolation-filters="sRGB">
<feFlood flood-opacity="0" result="BackgroundImageFix"/>
<feColorMatrix in="SourceAlpha" type="matrix" values="0 0 0 0 0 0 0 0 0 0 0 0 0 0 0 0 0 0 127 0" result="hardAlpha"/>
<feOffset dx="3" dy="3"/>
<feGaussianBlur stdDeviation="3"/>
<feColorMatrix type="matrix" values="0 0 0 0 0.207843 0 0 0 0 0.207843 0 0 0 0 0.207843 0 0 0 0.2 0"/>
<feBlend mode="normal" in2="BackgroundImageFix" result="effect1_dropShadow_191_1625"/>
<feBlend mode="normal" in="SourceGraphic" in2="effect1_dropShadow_191_1625" result="shape"/>
</filter>
<filter id="filter1_d_191_1625" x="0" y="2.5498" width="91.36" height="91.3599" filterUnits="userSpaceOnUse" color-interpolation-filters="sRGB">
<feFlood flood-opacity="0" result="BackgroundImageFix"/>
<feColorMatrix in="SourceAlpha" type="matrix" values="0 0 0 0 0 0 0 0 0 0 0 0 0 0 0 0 0 0 127 0" result="hardAlpha"/>
<feOffset dx="3" dy="3"/>
<feGaussianBlur stdDeviation="3"/>
<feColorMatrix type="matrix" values="0 0 0 0 0 0 0 0 0 0 0 0 0 0 0 0 0 0 0.35 0"/>
<feBlend mode="normal" in2="BackgroundImageFix" result="effect1_dropShadow_191_1625"/>
<feBlend mode="normal" in="SourceGraphic" in2="effect1_dropShadow_191_1625" result="shape"/>
</filter>
</defs>
</svg>
